<?xml version="1.0" encoding="UTF-8"?>
<svg width="1920px" height="1252px" viewBox="0 0 1920 1252" version="1.1" xmlns="http://www.w3.org/2000/svg" xmlns:xlink="http://www.w3.org/1999/xlink">
    <!-- Generator: Sketch 50.2 (55047) - http://www.bohemiancoding.com/sketch -->
    <title>Group 24</title>
    <desc>Created with Sketch.</desc>
    <defs>
        <linearGradient x1="98.8164122%" y1="3.33741376%" x2="2.1195104%" y2="99.9654189%" id="linearGradient-1">
            <stop stop-color="#03468F" offset="0%"></stop>
            <stop stop-color="#1E4392" offset="100%"></stop>
        </linearGradient>
        <linearGradient x1="99.1544336%" y1="100%" x2="2.15409148%" y2="2.93049574%" id="linearGradient-2">
            <stop stop-color="#273F97" offset="0%"></stop>
            <stop stop-color="#2481DE" offset="100%"></stop>
        </linearGradient>
    </defs>
    <g id="Page-1" stroke="none" stroke-width="1" fill="none" fill-rule="evenodd">
        <g id="01-Home">
            <g id="Group-3">
                <g id="Group-24">
                    <path d="M8.52651283e-14,0 L1920,0 L1920,499.76758 C1793.17495,563.138412 1625.21804,526.764917 1416.12927,390.647095 C1102.4961,186.470363 1204.62392,1062.18122 657.287849,1062.18122 C292.397137,1062.18122 73.3011873,1118.30437 8.52651283e-14,1230.55067 L8.52651283e-14,0 Z" id="Rectangle-2" fill="url(#linearGradient-1)" transform="translate(960.000000, 615.275335) scale(-1, 1) translate(-960.000000, -615.275335) "></path>
                    <path d="M8.52651283e-14,0 L1920,0 L1919,430.787664 C1829.95544,540.740435 1661.99853,574.073768 1415.12927,530.787664 C1044.82537,465.858508 1204.62392,961.762819 657.287849,961.762819 C292.397137,961.762819 73.3011873,1058.40697 8.52651283e-14,1251.69526 L8.52651283e-14,0 Z" id="Rectangle-2" fill="url(#linearGradient-2)" transform="translate(960.000000, 625.847631) scale(-1, 1) translate(-960.000000, -625.847631) "></path>
                </g>
            </g>
        </g>
    </g>
</svg>