<?xml version="1.0" encoding="UTF-8"?>
<svg width="702px" height="580px" viewBox="0 0 702 580" version="1.1" xmlns="http://www.w3.org/2000/svg" xmlns:xlink="http://www.w3.org/1999/xlink">
    <!-- Generator: Sketch 50.2 (55047) - http://www.bohemiancoding.com/sketch -->
    <title>undraw_analysis_4jis (1)</title>
    <desc>Created with Sketch.</desc>
    <defs></defs>
    <g id="Page-1" stroke="none" stroke-width="1" fill="none" fill-rule="evenodd">
        <g id="01-Home" transform="translate(-256.000000, -268.000000)" fill-rule="nonzero">
            <g id="Group-11" transform="translate(255.000000, 268.000000)">
                <g id="undraw_analysis_4jis-(1)" transform="translate(351.500000, 290.000000) scale(-1, 1) translate(-351.500000, -290.000000) ">
                    <g id="Group" opacity="0.7" transform="translate(169.622105, 0.000000)">
                        <rect id="Rectangle-path" fill="#F6F7F9" x="0.416954052" y="228.009863" width="147.447307" height="82.4469943"></rect>
                        <g opacity="0.2" transform="translate(12.354194, 248.785795)" fill="#3B6EFF" id="Oval">
                            <ellipse cx="15.8210899" cy="15.8233946" rx="15.3500862" ry="15.3598186"></ellipse>
                        </g>
                        <g opacity="0.2" transform="translate(61.770971, 245.695288)" fill="#3B6EFF" id="Rectangle-path">
                            <rect x="0.471003651" y="0.710816556" width="66.8825185" height="4.21081547"></rect>
                        </g>
                        <g opacity="0.2" transform="translate(61.770971, 256.512062)" fill="#3B6EFF" id="Rectangle-path">
                            <rect x="0.471003651" y="0.62582762" width="34.0744117" height="4.21081547"></rect>
                        </g>
                        <g opacity="0.2" transform="translate(61.770971, 267.328835)" fill="#3B6EFF" id="Rectangle-path">
                            <rect x="0.471003651" y="0.540838684" width="55.1074272" height="4.21081547"></rect>
                        </g>
                        <g opacity="0.2" transform="translate(61.770971, 278.145609)" fill="#3B6EFF" id="Rectangle-path">
                            <rect x="0.471003651" y="0.455849748" width="66.8825185" height="4.21081547"></rect>
                        </g>
                        <g opacity="0.2" transform="translate(110.415610, 293.598143)" fill="#3B6EFF" id="Rectangle-path">
                            <rect x="0.208477026" y="0.494481083" width="18.5081271" height="8.13575907"></rect>
                        </g>
                        <rect id="Rectangle-path" fill="#F6F7F9" x="124.553441" y="0.154525338" width="147.447307" height="82.4469943"></rect>
                        <g opacity="0.2" transform="translate(136.668273, 20.860921)" fill="#3B6EFF" id="Oval">
                            <ellipse cx="15.6512197" cy="15.8929311" rx="15.3500862" ry="15.3598186"></ellipse>
                        </g>
                        <g opacity="0.2" transform="translate(186.085049, 18.543041)" fill="#3B6EFF" id="Rectangle-path">
                            <rect x="0.301133482" y="0.00772626646" width="66.8825185" height="4.21081547"></rect>
                        </g>
                        <g opacity="0.2" transform="translate(186.085049, 28.587188)" fill="#3B6EFF" id="Rectangle-path">
                            <rect x="0.301133482" y="0.695364023" width="34.0744117" height="4.21081547"></rect>
                        </g>
                        <g opacity="0.2" transform="translate(186.085049, 39.403961)" fill="#3B6EFF" id="Rectangle-path">
                            <rect x="0.301133482" y="0.610375087" width="55.1074272" height="4.21081547"></rect>
                        </g>
                        <g opacity="0.2" transform="translate(186.085049, 50.220735)" fill="#3B6EFF" id="Rectangle-path">
                            <rect x="0.301133482" y="0.533112417" width="66.8825185" height="4.21081547"></rect>
                        </g>
                        <g opacity="0.2" transform="translate(234.729689, 65.673269)" fill="#3B6EFF" id="Rectangle-path">
                            <rect x="0.0308854853" y="0.564017485" width="18.5081271" height="8.13575907"></rect>
                        </g>
                        <rect id="Rectangle-path" fill="#F6F7F9" x="173.630477" y="138.578323" width="147.447307" height="82.4469943"></rect>
                        <g opacity="0.2" transform="translate(185.312912, 159.161099)" fill="#3B6EFF" id="Oval">
                            <ellipse cx="16.0758951" cy="16.0242776" rx="15.3500862" ry="15.3598186"></ellipse>
                        </g>
                        <g opacity="0.2" transform="translate(234.729689, 156.843218)" fill="#3B6EFF" id="Rectangle-path">
                            <rect x="0.733530277" y="0.139072805" width="66.8825185" height="4.21081547"></rect>
                        </g>
                        <g opacity="0.2" transform="translate(234.729689, 167.659992)" fill="#3B6EFF" id="Rectangle-path">
                            <rect x="0.733530277" y="0.0540838684" width="34.0744117" height="4.21081547"></rect>
                        </g>
                        <g opacity="0.2" transform="translate(234.729689, 177.704139)" fill="#3B6EFF" id="Rectangle-path">
                            <rect x="0.733530277" y="0.741721624" width="55.1074272" height="4.21081547"></rect>
                        </g>
                        <g opacity="0.2" transform="translate(234.729689, 188.520913)" fill="#3B6EFF" id="Rectangle-path">
                            <rect x="0.733530277" y="0.656732688" width="66.8825185" height="4.21081547"></rect>
                        </g>
                        <g opacity="0.2" transform="translate(283.374328, 203.973447)" fill="#3B6EFF" id="Rectangle-path">
                            <rect x="0.46328228" y="0.695364023" width="18.5081271" height="8.13575907"></rect>
                        </g>
                    </g>
                    <rect id="Rectangle-path" fill="#F6F7F9" x="120.321149" y="50.9624566" width="244.458616" height="136.700841"></rect>
                    <g id="Group" opacity="0.2" transform="translate(140.280894, 85.761563)" fill="#3B6EFF">
                        <ellipse id="Oval" cx="26.0596283" cy="25.8907204" rx="25.4496399" ry="25.4657758"></ellipse>
                    </g>
                    <g id="Group" opacity="0.2" transform="translate(222.127431, 81.125803)" fill="#3B6EFF">
                        <rect id="Rectangle-path" x="0.710366163" y="0.339955744" width="110.894335" height="6.97681903"></rect>
                    </g>
                    <g id="Group" opacity="0.2" transform="translate(222.127431, 98.896217)" fill="#3B6EFF">
                        <rect id="Rectangle-path" x="0.710366163" y="0.370860812" width="56.4895527" height="6.97681903"></rect>
                    </g>
                    <g id="Group" opacity="0.2" transform="translate(222.127431, 116.666630)" fill="#3B6EFF">
                        <rect id="Rectangle-path" x="0.710366163" y="0.394039613" width="91.366987" height="6.97681903"></rect>
                    </g>
                    <g id="Group" opacity="0.2" transform="translate(222.127431, 134.437044)" fill="#3B6EFF">
                        <rect id="Rectangle-path" x="0.710366163" y="0.417218414" width="110.894335" height="6.97681903"></rect>
                    </g>
                    <rect id="Rectangle-path" fill="#3B6EFF" x="303.039681" y="160.536374" width="30.6847297" height="13.490062"></rect>
                    <rect id="Rectangle-path" fill="#F6F7F9" x="294.113775" y="239.506548" width="232.567705" height="130.048525"></rect>
                    <g id="Group" opacity="0.2" transform="translate(313.239612, 272.737222)" fill="#3B6EFF">
                        <ellipse id="Oval" cx="24.66206" cy="24.5077187" rx="24.2142205" ry="24.2295731"></ellipse>
                    </g>
                    <g id="Group" opacity="0.2" transform="translate(391.225463, 268.101462)" fill="#3B6EFF">
                        <rect id="Rectangle-path" x="0.416954052" y="0.424944681" width="105.497097" height="6.63686328"></rect>
                    </g>
                    <g id="Group" opacity="0.2" transform="translate(391.225463, 285.099249)" fill="#3B6EFF">
                        <rect id="Rectangle-path" x="0.416954052" y="0.363134545" width="53.7407445" height="6.63686328"></rect>
                    </g>
                    <g id="Group" opacity="0.2" transform="translate(391.225463, 302.097037)" fill="#3B6EFF">
                        <rect id="Rectangle-path" x="0.416954052" y="0.293598143" width="86.9194771" height="6.63686328"></rect>
                    </g>
                    <g id="Group" opacity="0.2" transform="translate(391.225463, 319.094824)" fill="#3B6EFF">
                        <rect id="Rectangle-path" x="0.416954052" y="0.224061741" width="105.497097" height="6.63686328"></rect>
                    </g>
                    <g id="Group" opacity="0.5" transform="translate(467.667039, 343.046251)" fill="#3B6EFF">
                        <rect id="Rectangle-path" x="0.277969368" y="0.70309029" width="29.194505" height="12.8333294"></rect>
                    </g>
                    <path d="M42.5592187,370.876265 C39.2004222,385.679792 25.8115643,363.289071 22.7616226,357.919315 L22.1439129,356.806733 L23.5955307,349.999891 L31.2705738,346.870753 C32.4829273,347.505159 33.6310468,348.255532 34.6988627,349.111371 C38.9224528,352.387308 45.1535995,359.410485 42.5592187,370.876265 Z" id="Shape" fill="#F4BF96"></path>
                    <path d="M146.411663,346.646692 L146.326728,346.978921 C146.326728,347.079363 146.257236,347.195257 146.218629,347.342056 C144.905996,351.977816 137.099689,377.98443 129.563631,370.760371 C121.317206,362.833221 125.324598,344.630136 125.324598,344.630136 L125.401812,344.630136 L142.751733,342.853095 L146.187743,346.391725 L146.411663,346.646692 Z" id="Shape" fill="#F4BF96"></path>
                    <path d="M136.37388,474.678661 L136.813999,524.343104 C130.019192,535.623454 130.567409,545.667601 130.567409,545.667601 L108.175432,546.556122 C102.708701,542.878419 106.631158,532.61021 106.631158,532.61021 L106.631158,507.043993 C106.631158,507.043993 103.133377,482.057246 104.801193,475.103605 C106.469009,468.149965 97.7747451,455.347541 97.7747451,455.347541 L96.5547685,441.401629 C92.3080142,435.823264 90.3004577,405.010912 90.3004577,405.010912 L85.7371272,389.558378 C85.8529478,390.230563 88.2234088,403.218418 85.7371272,405.605834 C83.2508457,407.993251 82.2779529,418.555058 82.2779529,418.555058 C82.2779529,418.555058 84.733349,447.798978 82.2779529,453.709572 C79.8225568,459.620166 82.9419908,462.981093 82.9419908,462.981093 L83.3975517,493.337595 C83.3975517,493.337595 81.2741746,501.488807 83.6137501,512.985492 C85.9533256,524.482177 83.6137501,542.229412 83.6137501,542.229412 L59.5230715,542.229412 L59.6311707,529.867385 L55.7318782,519.375115 C55.7318782,519.375115 53.0525624,476.069389 50.9369066,466.697427 C49.6652843,461.138367 50.4555668,455.306338 53.1606616,450.286836 C53.1606616,450.286836 48.7054303,443.140039 48.9293501,438.117966 C49.1532698,433.095892 45.5242253,423.499869 45.5242253,423.499869 L40.3354638,388.22946 C40.4815868,381.44319 39.6176258,374.67294 37.7719685,368.141166 C34.7529123,358.097019 30.297681,344.923734 30.297681,344.923734 L35.3320151,345.371858 L60.7507696,347.635654 C60.7507696,347.635654 122.52174,343.478922 125.309155,346.932563 C125.895928,348.059815 126.292488,349.276354 126.482804,350.533004 C129.254776,363.010925 132.922427,402.07493 132.922427,402.07493 C132.922427,402.07493 140.396715,432.547327 137.184624,435.560571 C133.972534,438.573815 134.374045,448.393901 134.374045,448.393901 C139.161295,457.603611 136.37388,474.678661 136.37388,474.678661 Z" id="Shape" fill="#071659"></path>
                    <path d="M84.1388034,561.035146 C83.9612118,563.80115 80.8726633,563.971127 80.8726633,563.971127 C71.8386588,565.392761 69.9237587,568.915938 69.9237587,568.915938 C69.9237587,568.915938 61.2217732,577.530726 48.1880984,576.317702 C37.0770451,575.251477 38.1503157,573.227195 38.7216972,569.59585 C38.8354575,568.911414 38.8948405,568.219034 38.8992887,567.52521 C38.8992887,562.503137 42.7599744,561.073777 48.7749226,557.311085 C54.7898709,553.548393 54.6277221,550.357445 57.1371678,547.599168 C59.6466135,544.840891 59.9014187,539.486588 59.9014187,539.486588 C62.7428834,534.541777 69.9392015,540.259214 69.9392015,540.259214 C70.2712204,542.013077 80.9807625,541.804468 80.9807625,541.804468 C80.9807625,541.804468 82.4014948,547.498726 83.1273037,547.830956 C83.6060287,548.055018 83.9689332,552.5208 84.1156392,556.329849 C84.1851316,558.261416 84.192853,560.092541 84.1388034,561.035146 Z" id="Shape" fill="#001F6E"></path>
                    <path d="M84.1388034,561.035146 C83.9612118,563.80115 80.8726633,563.971127 80.8726633,563.971127 C71.8386588,565.392761 69.9237587,568.915938 69.9237587,568.915938 C69.9237587,568.915938 61.2217732,577.530726 48.1880984,576.317702 C37.0770451,575.251477 38.1503157,573.227195 38.7216972,569.59585 C43.6865389,570.832052 53.1838257,572.547284 58.7277703,569.53404 C66.4491416,565.346403 71.9544794,562.418148 71.9544794,562.418148 L84.1001965,556.229408 C84.1851316,558.261416 84.192853,560.092541 84.1388034,561.035146 Z" id="Shape" fill="#000000" opacity="0.1"></path>
                    <path d="M152.225856,575.939115 C151.632874,577.04168 150.636896,577.872187 149.446162,578.256995 C149.376103,578.282273 149.303668,578.300393 149.229964,578.311079 C145.54687,579.083706 131.324104,579.083706 131.324104,579.083706 C131.324104,579.083706 116.908303,567.911524 112.584335,567.656557 C108.260367,567.40159 105.889906,563.638898 105.889906,563.638898 C105.889906,563.638898 105.974841,561.042872 106.252811,558.029628 C106.592551,554.467819 107.187097,550.303361 108.229482,549.237136 C110.159825,547.228307 110.545893,544.47003 114.923911,546.223892 C114.923911,546.223892 121.101008,535.32213 128.389982,543.743761 L135.926041,555.186362 C135.926041,555.186362 137.346773,559.953469 146.890388,565.060531 C150.712467,567.107992 152.434333,569.518587 152.889894,571.720573 C153.203225,573.160378 152.966321,574.665398 152.225856,575.939115 Z" id="Shape" fill="#001F6E"></path>
                    <path d="M152.225856,575.939115 C151.376505,576.657658 150.426776,577.430284 149.446162,578.256995 C149.376103,578.282273 149.303668,578.300393 149.229964,578.311079 C145.54687,579.083706 131.324104,579.083706 131.324104,579.083706 C131.324104,579.083706 116.908303,567.911524 112.584335,567.656557 C108.260367,567.40159 105.889906,563.638898 105.889906,563.638898 C105.889906,563.638898 105.974841,561.042872 106.252811,558.029628 C110.677157,559.358546 117.39475,561.699605 119.193829,564.210642 C121.950359,568.073775 130.328047,573.412626 130.328047,573.412626 C130.328047,573.412626 145.948381,571.91373 152.889894,571.705121 C153.207244,573.149832 152.97022,574.661128 152.225856,575.939115 Z" id="Shape" fill="#000000" opacity="0.1"></path>
                    <path d="M91.4277779,186.419368 L70.8426019,208.184262 C70.8426019,208.184262 45.9102939,206.345411 50.2651473,198.974552 C52.4811809,195.227312 52.8286426,187.385152 52.6356083,180.539679 C52.4502954,173.949173 51.7708147,168.339904 51.7708147,168.339904 C51.7708147,168.339904 86.7409055,150.924898 84.0615896,167.165511 C83.4929176,170.22699 83.4589554,173.363943 83.9612118,176.437031 C85.482322,184.642327 91.4277779,186.419368 91.4277779,186.419368 Z" id="Shape" fill="#F4BF96"></path>
                    <path d="M91.4277779,156.951386 C91.4318225,168.985473 83.1179781,179.422803 71.3935166,182.102709 C59.669055,184.782616 47.650779,178.99268 42.4325124,168.150429 C37.2142458,157.308177 40.1832001,144.295888 49.586941,136.794105 C58.9906819,129.292322 72.3293415,129.2953 81.7297355,136.801282 C87.8561437,141.693067 91.4251419,149.108552 91.4277779,156.951386 Z" id="Shape" fill="#F4BF96"></path>
                    <path d="M126.475082,350.471194 C120.058623,365.75375 78.7801717,366.070527 78.7801717,366.070527 L78.7801717,349.412695 L76.2784473,349.250444 C77.3594393,354.01755 74.7341731,365.653308 74.7341731,365.653308 C42.1113792,370.289068 34.1660881,351.676491 34.1660881,351.676491 L35.2934083,345.310047 L60.7121627,347.573844 C60.7121627,347.573844 122.483133,343.417112 125.270548,346.870753 C125.868047,347.996088 126.27507,349.212711 126.475082,350.471194 Z" id="Shape" fill="#000000" opacity="0.1"></path>
                    <path d="M78.7801717,364.061697 L78.7801717,347.396139 L76.2784473,347.241614 C77.3594393,352.008721 74.7341731,363.644479 74.7341731,363.644479 C50.1879336,367.105846 39.6019335,357.463465 35.8725111,352.441392 C35.2054732,351.578289 34.6333606,350.64575 34.1660881,349.659936 L44.1189357,293.574964 L46.4353471,211.035255 L50.0257848,196.55623 L50.8596929,189.60259 L50.8596929,189.525328 L50.944628,189.563959 L53.4772378,190.653362 L68.6728966,197.220689 L86.022818,184.186477 L86.2776232,183.99332 L87.1346954,183.344314 L88.5631491,184.495528 L92.1072586,187.338794 L103.48856,260.846497 C103.48856,260.846497 123.224385,317.449129 126.884315,340.2957 C127.031021,341.2074 127.154563,342.057289 127.24722,342.853095 C129.648566,363.675384 78.7801717,364.061697 78.7801717,364.061697 Z" id="Shape" fill="#FFFFFF"></path>
                    <ellipse id="Oval" fill="#141B2C" cx="70.5800753" cy="198.8123" rx="1.46706055" ry="1.46799071"></ellipse>
                    <ellipse id="Oval" fill="#141B2C" cx="71.259556" cy="212.201921" rx="1.46706055" ry="1.46799071"></ellipse>
                    <ellipse id="Oval" fill="#141B2C" cx="72.7188952" cy="233.889552" rx="1.46706055" ry="1.46799071"></ellipse>
                    <ellipse id="Oval" fill="#141B2C" cx="75.1511271" cy="257.238331" rx="1.46706055" ry="1.46799071"></ellipse>
                    <ellipse id="Oval" fill="#141B2C" cx="76.6104663" cy="279.173203" rx="1.46706055" ry="1.46799071"></ellipse>
                    <ellipse id="Oval" fill="#141B2C" cx="78.0775269" cy="302.529707" rx="1.46706055" ry="1.46799071"></ellipse>
                    <ellipse id="Oval" fill="#141B2C" cx="77.4907026" cy="325.638972" rx="1.46706055" ry="1.46799071"></ellipse>
                    <path d="M51.8943567,301.733902 C51.8943567,301.733902 50.2574259,323.212924 47.2615339,329.455748 C44.2656418,335.698571 42.9066804,353.229471 42.9066804,353.229471 L35.9574462,352.456844 C35.2904083,351.593742 34.7182957,350.661202 34.2510232,349.675388 L44.2038708,293.590417 L46.5202822,211.050707 L50.1107199,196.571683 L50.944628,189.618043 C50.971746,189.597522 51.0036281,189.58423 51.0372844,189.579411 C51.8272302,189.205978 52.7455883,189.220247 53.523566,189.618043 L53.8633064,189.788021 C53.7629285,190.073892 53.6625507,190.367491 53.5698942,190.668815 C50.8519715,199.20634 49.8327505,214.952472 49.8327505,214.952472 C49.8327505,214.952472 53.7397644,243.748269 54.1798826,257.145616 C54.6200007,270.542962 51.8943567,301.733902 51.8943567,301.733902 Z" id="Shape" fill="#000000" opacity="0.1"></path>
                    <path d="M34.6988627,349.111371 C34.6222472,349.289242 34.5345665,349.462135 34.4363361,349.629031 C31.7261347,354.210707 24.8541142,357.12351 22.7616226,357.919315 L22.1439129,356.806733 L23.5955307,349.999891 L31.2705738,346.870753 C32.4829273,347.505159 33.6310468,348.255532 34.6988627,349.111371 Z" id="Shape" fill="#000000" opacity="0.1"></path>
                    <path d="M16.1212433,239.498822 L9.76655466,243.315598 L3.96008341,269.098151 C3.96008341,269.098151 -3.29028427,290.978938 2.2922672,306.60145 C7.87481868,322.223962 11.125516,331.132348 11.125516,331.132348 C11.125516,331.132348 13.3569923,348.902762 16.7003461,350.332121 C20.0436999,351.76148 21.5030391,352.565012 21.5030391,352.565012 L22.167077,356.806733 C22.167077,356.806733 31.2474097,353.716226 34.4595002,348.307839 C37.6715907,342.899452 32.0967606,329.370759 32.0967606,329.370759 C32.0967606,329.370759 27.301789,317.874074 28.529487,312.519771 C29.757185,307.165468 26.0740909,293.095936 26.0740909,292.763706 C26.0740909,292.431477 25.7420719,284.944724 28.3905023,279.196381 C31.0389327,273.448039 29.2861814,270.998812 29.2861814,270.998812 L27.6106438,254.588221 L16.1212433,239.498822 Z" id="Shape" fill="#141B2C"></path>
                    <path d="M127.000136,345.642277 C127.000136,345.642277 110.159825,352.008721 104.801193,346.414904 C99.4425613,340.821086 100.006221,314.737209 100.006221,314.737209 C100.006221,314.737209 94.8792309,266.517577 91.6362549,258.598154 C88.393279,250.67873 90.0919807,193.519808 90.0919807,193.519808 C90.0919807,193.519808 87.8991112,186.141223 86.022818,184.186477 C85.9047991,184.057877 85.7697017,183.946091 85.6213067,183.854248 L86.2776232,183.99332 L88.5940346,184.495528 L92.1381441,187.338794 L103.519445,260.846497 C103.519445,260.846497 123.255271,317.449129 126.915201,340.2957 L127.000136,345.642277 Z" id="Shape" fill="#000000" opacity="0.1"></path>
                    <path d="M146.411663,347.318877 L146.218629,347.318877 C144.102973,347.589296 125.370926,349.853092 125.301434,345.959054 C125.301761,345.507261 125.32754,345.055846 125.378648,344.606957 L142.728569,342.829916 L146.164579,346.368546 C146.22635,346.600334 146.2804,346.801217 146.326728,346.955742 L146.411663,347.318877 Z" id="Shape" fill="#000000" opacity="0.1"></path>
                    <path d="M128.49036,213.669912 L140.805948,220.090439 C140.805948,220.090439 151.021322,246.637893 152.696859,258.02641 C152.696859,258.02641 160.279246,288.521986 155.013271,301.061717 C149.747296,313.601448 150.218299,338.503206 150.218299,338.503206 C150.218299,338.503206 147.206964,343.077156 145.979266,341.84868 C144.751568,340.620203 146.427106,346.646692 146.427106,346.646692 C146.427106,346.646692 125.401812,349.4436 125.301434,345.302321 C125.201056,341.161042 130.127291,321.412704 130.127291,321.412704 C130.127291,321.412704 131.463088,274.421548 129.563631,267.058416 C127.664174,259.695284 128.49036,213.669912 128.49036,213.669912 Z" id="Shape" fill="#141B2C"></path>
                    <path d="M91.7520755,263.720669 C91.7520755,263.720669 84.8028413,280.679825 82.6022505,281.800133 C80.4016596,282.920442 83.05009,287.378498 83.05009,287.378498 C83.05009,287.378498 95.6590894,269.747157 91.7520755,263.720669 Z" id="Shape" fill="#000000" opacity="0.1"></path>
                    <path d="M87.6288632,204.220687 C87.7060769,203.896184 79.3669959,212.402804 77.1432409,213.669912 C74.919486,214.937019 85.2506808,213.600375 87.6288632,204.220687 Z" id="Shape" fill="#000000" opacity="0.1"></path>
                    <path d="M64.4029782,262.376298 C64.4029782,262.376298 51.6858796,270.612499 53.3536958,273.857531 C55.0215121,277.102563 64.4029782,262.376298 64.4029782,262.376298 Z" id="Shape" fill="#000000" opacity="0.1"></path>
                    <path d="M87.5130426,382.481118 C87.5130426,382.481118 98.3229625,389.434758 115.178716,391.18862 L87.5130426,382.481118 Z" id="Shape" fill="#000000" opacity="0.1"></path>
                    <path d="M61.5229067,399.223938 C61.5229067,399.223938 71.5606895,411.833206 76.1394627,412.173161 C80.7182359,412.513117 61.5229067,399.223938 61.5229067,399.223938 Z" id="Shape" fill="#000000" opacity="0.1"></path>
                    <path d="M75.5758026,448.672046 C75.127963,448.896108 69.8851519,460.052837 64.5342415,460.392793 C59.1833312,460.732749 75.5758026,448.672046 75.5758026,448.672046 Z" id="Shape" fill="#000000" opacity="0.1"></path>
                    <path d="M122.097065,473.110228 C122.097065,473.110228 132.042191,470.885064 134.250503,478.024134 C134.250503,478.024134 133.586465,475.791243 122.097065,473.110228 Z" id="Shape" fill="#000000" opacity="0.1"></path>
                    <path d="M115.402636,513.966728 C115.402636,513.966728 127.447975,511.509775 130.01147,514.862975 C132.574966,518.216175 115.402636,513.966728 115.402636,513.966728 Z" id="Shape" fill="#000000" opacity="0.1"></path>
                    <path d="M81.3050601,519.660987 C81.3050601,519.769154 69.035801,522.11794 69.5222474,523.678645 C70.0086938,525.239351 82.6022505,525.01529 83.05009,522.558337 C83.2243527,521.941606 83.1356398,521.280203 82.8050295,520.731276 C82.4744193,520.182349 81.9314241,519.7949 81.3050601,519.660987 Z" id="Shape" fill="#000000" opacity="0.1"></path>
                    <path d="M111.387523,530.261425 C111.387523,530.261425 131.540302,527.804472 130.273997,532.046193 C129.007692,536.287913 111.387523,530.261425 111.387523,530.261425 Z" id="Shape" fill="#000000" opacity="0.1"></path>
                    <path d="M5.85954076,281.800133 C5.97536133,282.132363 19.1325781,283.91713 20.9162149,288.158851 C20.9162149,288.158851 7.98291788,282.132363 5.97536133,282.132363" id="Shape" fill="#000000" opacity="0.1"></path>
                    <path d="M24.3753892,316.290189 C24.3753892,316.290189 13.4419274,319.751556 14.2140645,324.997692 C14.9862017,330.243827 13.1099084,322.548465 24.3753892,316.290189 Z" id="Shape" fill="#000000" opacity="0.1"></path>
                    <path d="M19.2792841,342.853095 C19.2792841,342.853095 23.2635118,337.382898 27.0547051,338.387312 C30.8458984,339.391727 19.2792841,342.853095 19.2792841,342.853095 Z" id="Shape" fill="#000000" opacity="0.1"></path>
                    <path d="M81.7220141,136.801282 C81.3366463,137.173202 80.9060098,137.495087 80.4402665,137.759339 C77.2667829,139.598191 76.417432,142.395099 74.8963219,145.694215 C73.506475,148.684281 71.9699221,151.875229 69.1516216,153.544102 C65.5225771,155.730636 60.7353268,154.927104 56.9595763,156.843218 C53.5367853,158.637943 51.5405369,162.32754 51.9097994,166.176549 C52.1552025,167.627426 52.516696,169.056231 52.9907914,170.449174 C53.8426687,173.463272 54.2306153,176.589655 54.1412757,179.720695 C54.1526827,179.815644 54.1526827,179.911618 54.1412757,180.006567 C45.3162952,175.600657 39.7777111,166.541838 39.875461,156.673629 C39.973211,146.80542 45.6901542,137.858234 54.6006781,133.628227 C63.511202,129.39822 74.0528266,130.627133 81.7528996,136.793556 L81.7220141,136.801282 Z" id="Shape" fill="#000000" opacity="0.1"></path>
                    <path d="M81.0502548,129.04411 C78.2165115,123.087158 72.0625786,119.324466 65.7310541,117.45471 C60.8974756,116.056255 55.6546645,115.600406 50.8596929,117.137933 C48.1263275,118.011001 45.6323245,119.455813 43.0765506,120.784731 C38.2970217,123.203052 33.0387679,125.11144 29.4483302,129.082741 C28.6144221,130.002167 27.842285,131.192012 28.0893688,132.412762 C28.2746817,133.324462 28.9850479,134.019826 29.4406088,134.831084 C30.4675512,136.63903 30.212746,138.918279 29.5101012,140.888477 C28.8074564,142.858675 27.780514,144.697527 27.2863462,146.721809 C26.7921785,148.746091 26.9852127,151.118055 28.4831588,152.562867 C29.2068732,153.136614 29.9594003,153.673 30.7377992,154.16993 C31.5561265,154.882004 32.2754607,155.700538 32.8766191,156.603704 L37.1310947,162.421583 C39.1320587,165.003597 40.91416,167.748222 42.4588409,170.626879 C43.5243901,172.736149 44.3428555,174.992219 45.7558665,176.877429 C47.1688774,178.762638 49.384911,180.276986 51.7322079,180.068377 C52.1002684,180.080763 52.4514579,179.913699 52.6742152,179.620253 C52.766497,179.436105 52.8090845,179.231022 52.7977571,179.025331 C52.8938146,175.893975 52.5057412,172.76657 51.6472728,169.75381 C51.1731774,168.360867 50.8116839,166.932062 50.5662808,165.481185 C50.1991782,161.632615 52.1948147,157.944148 55.6160576,156.147854 C59.3995296,154.239466 64.1867798,155.042998 67.8158244,152.856465 C70.6341249,151.14896 72.1706778,147.988917 73.5605246,144.998851 C75.1047989,141.73064 75.9309856,138.902827 79.1044693,137.063975 C82.2779529,135.225124 82.6176932,132.173248 81.0502548,129.04411 Z" id="Shape" fill="#040D37"></path>
                    <path d="M69.5068047,550.496518 C69.5068047,550.496518 73.4292613,555.518591 72.425483,558.361858 C71.4217048,561.205124 69.5068047,550.496518 69.5068047,550.496518 Z" id="Shape" fill="#000000" opacity="0.1"></path>
                    <path d="M122.838316,563.051702 C122.838316,563.051702 123.710831,556.314397 127.224055,556.252587 C130.737279,556.190777 130.90715,555.889452 133.586465,556.917046 C136.265781,557.944639 138.775227,559.551703 137.979926,559.798943 C137.184624,560.046184 133.347103,555.93581 129.486417,558.029628 C127.033646,559.364327 124.793064,561.056895 122.838316,563.051702 Z" id="Shape" fill="#000000" opacity="0.1"></path>
                    <path d="M52.4966236,189.108109 L52.1646047,188.938131 C51.1614683,188.426031 49.9510137,188.55321 49.0760561,189.262634 L15.9668158,216.142317 C15.9668158,216.142317 8.77049775,226.101475 9.78971877,243.292419 L29.3093455,270.975633 C29.3093455,270.975633 31.5408218,261.595945 34.2201377,263.380713 C34.2201377,263.380713 38.011331,311.376283 34.2201377,318.299018 C30.4289444,325.221753 28.7534068,351.112474 28.7534068,351.112474 L41.5786046,352.565012 C41.5786046,352.565012 42.9144018,335.041839 45.9257366,328.791289 C48.9370714,322.540739 50.5585594,301.061717 50.5585594,301.061717 C50.5585594,301.061717 53.2687608,269.855325 52.8209212,256.450252 C52.3730817,243.045178 48.4737892,214.264834 48.4737892,214.264834 C48.4737892,214.264834 49.5625025,197.390667 52.4966236,189.108109 Z" id="Shape" fill="#141B2C"></path>
                    <path d="M85.0344824,183.738354 C85.2302741,183.702869 85.4321975,183.744387 85.5981425,183.854248 L85.0344824,183.738354 Z" id="Shape" fill="#000000" opacity="0.1"></path>
                    <path d="M86.3702797,182.393983 L122.876923,190.274775 C122.876923,190.274775 132.914706,192.507667 140.165074,217.726202 C147.415441,242.944737 130.23539,273.857531 130.23539,273.857531 L126.444197,270.635678 L128.343654,344.305633 C128.343654,344.305633 111.495622,350.66435 106.144712,345.078259 C100.793801,339.492168 101.342019,313.400565 101.342019,313.400565 C101.342019,313.400565 96.2150281,265.165481 92.9720522,257.222878 C89.7290762,249.280276 91.4277779,192.144532 91.4277779,192.144532 C91.4277779,192.144532 88.4087217,181.953586 86.3702797,182.393983 Z" id="Shape" fill="#141B2C"></path>
                    <path d="M119.749768,229.338781 C119.232436,229.817809 118.63789,252.10809 120.869367,269.074972 C122.238701,279.407557 124.352134,289.627672 127.19317,299.655536 L123.880702,231.664387 C123.880702,231.664387 121.309485,227.863064 119.749768,229.338781 Z" id="Shape" fill="#000000" opacity="0.1"></path>
                    <path d="M115.286815,210.139008 C116.182494,210.695299 120.089508,219.959093 118.29815,223.760416 C116.506792,227.56174 115.286815,210.139008 115.286815,210.139008 Z" id="Shape" fill="#000000" opacity="0.1"></path>
                    <path d="M80.8340564,129.04411 C79.0461709,125.512204 76.2551438,122.587697 72.8115516,120.637932 C75.3682262,122.462321 77.434507,124.890878 78.8264999,127.707466 C80.3707741,130.836604 79.9383774,133.973468 76.8729929,135.75051 C73.8076085,137.527551 72.8501585,140.38627 71.3367697,143.685386 C69.9469228,146.675451 68.4026486,149.866399 65.584348,151.535273 C61.9553035,153.729533 57.1757747,152.926001 53.3923027,154.826663 C49.9698185,156.625624 47.9743108,160.316906 48.3425258,164.167719 C48.5842634,165.619368 48.9458319,167.048469 49.4235178,168.440345 C50.2804756,171.453291 50.6659646,174.580859 50.5662808,177.711865 C50.5796444,177.916852 50.5397429,178.12181 50.4504602,178.306788 C50.2277029,178.600233 49.8765135,178.767298 49.5084529,178.754911 C48.5633474,178.829093 47.6153666,178.653232 46.7596447,178.244978 C48.0208598,179.493455 49.7433266,180.162174 51.5160095,180.091556 C51.88407,180.103942 52.2352595,179.936877 52.4580168,179.643432 C52.5468094,179.458086 52.5892091,179.253908 52.5815587,179.04851 C52.6738064,175.917332 52.2858051,172.790509 51.4310744,169.776989 C50.9533884,168.385113 50.5918199,166.956012 50.3500824,165.504364 C49.9829798,161.655794 51.9786163,157.967327 55.3998593,156.171033 C59.1833312,154.262645 63.9628601,155.066177 67.5919046,152.879644 C70.4102051,151.172139 71.9544794,148.012095 73.3443262,145.02203 C74.8886005,141.753819 75.7070659,138.926005 78.8805495,137.087154 C82.0540331,135.248302 82.3937734,132.173248 80.8340564,129.04411 Z" id="Shape" fill="#000000" opacity="0.1"></path>
                    <polygon id="Shape" fill="#A27772" points="615.70117 543.117933 614.620178 563.46892 607.779043 561.761415 606.335147 553.293427"></polygon>
                    <polygon id="Shape" fill="#06165E" opacity="0.1" points="615.70117 543.117933 614.620178 563.46892 607.779043 561.761415 606.335147 553.293427"></polygon>
                    <path d="M640.81107,566.173114 L651.250364,568.336468 L658.971735,561.490996 L658.971735,542.21396 L659.141605,539.579303 L659.141605,539.50204 L659.180212,538.945749 L660.585502,517.54399 C660.585502,517.54399 671.024796,481.871815 672.646284,475.049521 C673.796768,470.1897 673.318043,455.532971 672.939696,447.435844 C672.785269,444.113549 672.646284,441.89611 672.646284,441.89611 L649.605712,436.310019 L649.119265,454.080433 L647.436006,516.199619 C647.321137,520.157538 646.521732,524.065606 645.073267,527.750388 L644.996053,527.958997 C642.989664,533.163089 641.859878,538.664168 641.652699,544.238242 L640.880562,563.978854 L640.880562,564.527419 L640.81107,566.173114 Z" id="Shape" fill="#FFE8D1"></path>
                    <polygon id="Shape" fill="#000000" opacity="0.1" points="659.172491 538.953475 659.172491 539.50204 659.172491 539.50204 659.211098 538.945749"></polygon>
                    <path d="M640.81107,566.173114 L651.250364,568.336468 L658.971735,561.490996 L658.971735,559.853027 C658.923642,560.59289 658.505412,561.258414 657.859858,561.622342 L657.751759,561.684152 C654.156092,563.589227 650.0803,564.39523 646.030717,564.002033 L641.953833,563.65435 C641.586216,563.695033 641.225439,563.783336 640.880562,563.917044 L640.880562,564.465609 L640.81107,566.173114 Z" id="Shape" fill="#000000" opacity="0.1"></path>
                    <path d="M657.774923,562.224991 L657.883022,562.163181 C658.576538,561.775585 659.005221,561.041924 659.002621,560.247067 L659.172491,539.494314 C659.172491,539.494314 661.427131,537.894977 660.886635,545.188573 C660.346139,552.482169 659.983235,563.383931 659.983235,563.383931 C659.983235,563.383931 659.8983,575.274656 648.555605,575.274656 C648.555605,575.274656 637.212911,577.430284 637.297846,570.947946 C637.382781,564.465609 641.984718,564.195189 641.984718,564.195189 L646.053881,564.550597 C650.103976,564.936401 654.17838,564.127986 657.774923,562.224991 Z" id="Shape" fill="#06165E"></path>
                    <path d="M586.444894,561.761415 C586.715142,566.443533 600.482347,563.739339 600.482347,563.739339 L609.747993,545.729411 C609.747993,545.729411 617.469364,539.780186 613.608679,534.557229 C613.39872,534.274074 613.207838,533.977244 613.037297,533.668709 L613.037297,533.622351 C612.952362,533.483278 612.88287,533.344205 612.805656,533.197406 C610.025962,527.680852 611.392645,518.633393 611.392645,518.633393 C611.392645,518.633393 614.990804,492.364086 616.257109,485.410445 C617.145067,480.504266 616.782162,464.441357 616.481029,455.447982 C616.365208,451.716195 616.257109,449.197432 616.257109,449.197432 L593.386407,443.078229 C593.386407,443.078229 593.386407,445.929221 593.386407,449.900523 C593.340079,455.540698 593.170209,463.436942 592.61427,468.567184 C591.625934,477.305591 595.139158,506.217282 595.139158,506.217282 L596.351414,532.532947 C596.52411,536.987494 595.474673,541.404336 593.316915,545.304467 C590.444565,550.558328 586.707421,557.952366 586.444894,561.228303 C586.429548,561.405675 586.429548,561.584043 586.444894,561.761415 Z" id="Shape" fill="#FFE8D1"></path>
                    <path d="M586.444894,561.761415 C586.715142,566.443533 600.482347,563.739339 600.482347,563.739339 L609.747993,545.729411 C609.747993,545.729411 617.469364,539.780186 613.608679,534.557229 C613.39872,534.274074 613.207838,533.977244 613.037297,533.668709 C612.913755,536.396081 609.948749,543.202922 609.948749,543.202922 C609.948749,543.202922 602.29687,558.524109 599.910966,562.031834 C597.525062,565.53956 586.900455,561.382828 586.506665,561.259208 C586.472391,561.424639 586.451732,561.592605 586.444894,561.761415 Z" id="Shape" fill="#000000" opacity="0.1"></path>
                    <path d="M612.790213,533.181954 C612.790213,533.181954 617.314937,532.131181 615.971418,543.929191 C616.071304,546.659425 614.700972,549.233744 612.380981,550.674222 C609.145726,552.713957 604.142277,557.09475 601.617389,565.616822 C601.621344,569.405775 599.017977,572.698851 595.332193,573.567151 C591.247587,574.517482 586.151482,575.359645 583.201918,574.532934 C577.712023,572.987681 580.11337,569.224989 580.11337,569.224989 L586.414009,561.745963 C586.414009,561.745963 597.393799,566.072672 599.826031,562.557221 C602.258263,559.041769 609.863813,543.728308 609.863813,543.728308 C609.863813,543.728308 614.164617,534.170916 612.790213,533.181954 Z" id="Shape" fill="#06165E"></path>
                    <path d="M649.636597,438.450195 L649.150151,456.220609 C655.327248,455.625686 659.682101,454.79125 660.438796,453.624583 C662.052562,451.113547 667.95169,450.047322 672.970581,449.614651 C672.816154,446.292356 672.677169,444.074917 672.677169,444.074917 L649.636597,438.450195 Z" id="Shape" fill="#000000" opacity="0.1"></path>
                    <path d="M593.363243,452.032972 C593.955566,450.83476 594.820325,449.792158 595.888131,448.988823 C598.320363,447.636726 598.057837,457.634516 598.057837,457.634516 C598.057837,457.634516 606.12667,457.711779 616.465586,457.580432 C616.349765,453.840919 616.241666,451.329882 616.241666,451.329882 L593.370964,445.210679 C593.370964,445.210679 593.40185,448.061671 593.363243,452.032972 Z" id="Shape" fill="#000000" opacity="0.1"></path>
                    <path d="M590.761141,454.412663 C590.761141,454.412663 593.463621,447.095888 595.888131,445.751517 C598.312642,444.407147 598.057837,454.39721 598.057837,454.39721 C598.057837,454.39721 657.466068,454.938049 660.438796,450.34092 C663.411524,445.743791 680.691953,446.021937 680.691953,446.021937 C680.691953,446.021937 680.151457,388.731667 678.800217,367.113573 C677.448977,345.495478 675.286993,325.770318 669.889754,319.828819 C666.391973,315.965686 661.396246,303.534122 658.354025,295.236111 C656.678488,290.700793 655.574332,287.401677 655.574332,287.401677 L598.868581,290.646709 L598.405298,295.236111 L592.382629,355.500993 C592.382629,355.500993 591.610492,421.946889 589.139653,437.105825 C586.668814,452.26476 590.761141,454.412663 590.761141,454.412663 Z" id="Shape" fill="#06165E"></path>
                    <g id="Group" opacity="0.1" transform="translate(588.120432, 287.417129)" fill="#000000">
                        <path d="M67.7395907,162.962422 C70.7045973,158.373019 87.9927477,158.643439 87.9927477,158.643439 C87.9927477,158.643439 87.4522517,101.353169 86.1010118,79.7350746 C84.7497718,58.1169798 82.5877878,38.3918203 77.1905492,32.4503211 C73.692768,28.5871876 68.6970408,16.1556241 65.6548205,7.85761346 C64.2495309,4.04856387 63.2457526,1.11258244 62.9600619,0.270419342 L67.3612435,0.0231788008 C67.3612435,0.0231788008 68.4653996,3.32229477 70.1409372,7.85761346 C73.2294857,16.1556241 78.1788848,28.6026401 81.676666,32.4503211 C87.0816259,38.3918203 89.2358885,58.1169798 90.5871285,79.7350746 C91.9383685,101.353169 92.447979,158.604807 92.447979,158.604807 C92.447979,158.604807 75.16755,158.326662 72.2025434,162.962422 C69.6622122,166.887365 25.9438077,167.06507 13.2498732,167.034165 C29.526524,166.956902 65.4231793,166.470147 67.7395907,162.962422 Z" id="Shape"></path>
                        <path d="M3.16576225,158.326662 C4.26219698,157.716287 4.81041434,159.408339 5.08066234,161.417168 C4.10127179,163.199487 3.24727598,165.047972 2.52488843,166.949176 C2.52488843,166.949176 0.98061416,166.107012 0.362904453,161.834387 C1.21997667,160.312312 2.21603357,158.859774 3.16576225,158.326662 Z" id="Shape"></path>
                    </g>
                    <path d="M608.280932,148.792448 C604.358476,154.154478 608.327261,161.76485 604.119113,166.972354 C602.729266,168.695312 600.590447,169.923788 599.138829,171.608115 C596.451791,174.744979 596.559891,178.994426 597.880245,182.679855 C599.2006,186.365284 601.586503,189.710758 603.223434,193.295746 C603.9338,194.840999 604.505182,196.594862 603.771652,198.140115 C603.262041,199.214066 602.227377,200.025324 601.362584,200.960203 C598.660104,203.981173 598.58289,208.184262 600.034508,211.738345 C601.486126,215.292428 604.273541,218.375208 606.983742,221.373 C608.064734,222.562845 609.431417,223.868584 611.230496,223.837679 C612.178318,223.760661 613.094149,223.458721 613.902091,222.956884 C620.306779,219.582695 625.1656,213.868508 627.46854,207.002143 C629.415156,200.542506 629.00467,193.600907 626.310334,187.416057 C623.993923,181.953586 620.225894,176.715177 620.195008,170.935929 C620.195008,166.354253 622.550027,161.981186 622.966981,157.414962 C623.476591,151.875229 620.195008,143.067285 613.508301,140.648963 C613.948419,144.226225 610.303932,146.072802 608.280932,148.792448 Z" id="Shape" fill="#141B2C"></path>
                    <path d="M651.821745,343.58709 C643.961389,344.004308 636.564316,347.380687 629.684574,351.205189 C622.804832,355.029691 616.14901,359.395032 608.744215,362.083773" id="Shape" fill="#000000" opacity="0.1"></path>
                    <path d="M646.934117,362.114678 C639.157681,362.861267 631.910213,366.385813 626.518811,372.042931 C624.611633,374.067213 622.966981,376.338735 620.974867,378.278028 C617.920999,381.24732 614.152083,383.376497 610.033684,384.459042" id="Shape" fill="#000000" opacity="0.1"></path>
                    <path d="M648.547884,376.207389 C642.279133,377.948032 636.605277,381.370535 632.13997,386.104737 C630.935436,387.40275 629.823558,388.801204 628.634467,390.09149 C622.125351,397.045131 612.936919,400.79237 604.065064,404.300095" id="Shape" fill="#000000" opacity="0.1"></path>
                    <path d="M647.876125,180.663299 C648.052008,186.947762 648.59342,193.216646 649.497613,199.438128 C650.223421,203.873005 651.258085,207.821128 652.740589,209.57499 C657.056835,214.712958 631.676688,221.604788 631.676688,221.604788 L616.689506,210.015387 C616.689506,210.015387 628.572696,199.067267 623.036473,188.38184 C617.50025,177.696413 647.876125,180.663299 647.876125,180.663299 Z" id="Shape" fill="#FFE8D1"></path>
                    <path d="M598.405298,295.236111 L658.354025,295.236111 C656.678488,290.700793 655.574332,287.401677 655.574332,287.401677 L598.868581,290.646709 L598.405298,295.236111 Z" id="Shape" fill="#000000" opacity="0.1"></path>
                    <path d="M594.544613,294.154434 L658.631995,294.154434 C656.832915,287.710728 658.631995,281.738323 661.203212,277.156647 C662.999999,273.937627 665.260893,271.001026 667.913083,268.441418 L668.353201,268.047378 L690.745178,263.079389 L691.949712,262.816695 C691.949712,262.816695 692.127304,222.106995 677.726946,216.520904 C663.326589,210.934813 654.678653,203.38625 654.678653,203.38625 L634.881057,209.505454 L620.295386,202.126869 C615.616235,207.172121 603.192549,205.217376 603.192549,205.217376 C582.846735,207.535256 582.846735,222.871896 582.846735,222.871896 C582.846735,222.871896 594.729926,250.61692 595.633326,250.61692 C596.536727,250.61692 594.544613,294.154434 594.544613,294.154434 Z" id="Shape" fill="#FFCB52"></path>
                    <path d="M616.674063,268.27144 C616.674063,268.27144 603.601781,265.37409 599.154271,260.305659" id="Shape" fill="#000000" opacity="0.1"></path>
                    <path d="M682.575967,253.081599 L667.44208,265.513163 C667.551932,266.495687 667.719518,267.470885 667.943969,268.433692 L668.384087,268.039652 L690.776064,263.071662 L682.575967,253.081599 Z" id="Shape" fill="#000000" opacity="0.1"></path>
                    <path d="M641.529157,289.835451 C641.529157,289.835451 644.849347,291.705208 649.930009,294.154434 L658.639716,294.154434 C656.840637,287.710728 658.639716,281.738323 661.210933,277.156647 L645.82224,272.173205 C651.072772,277.040753 641.529157,289.835451 641.529157,289.835451 Z" id="Shape" fill="#000000" opacity="0.1"></path>
                    <path d="M591.842133,217.95799 L582.839014,222.817812 L574.013486,245.154449 C574.013486,245.154449 564.832776,269.654442 565.728455,276.144506 C565.728455,276.144506 562.4932,291.450241 568.253343,294.154434 L583.279132,300.953549 C583.821817,301.199963 584.461099,301.072757 584.868283,300.637337 C585.275466,300.201916 585.359916,299.5552 585.078212,299.029709 C582.939392,294.973418 580.592095,288.63788 584.306074,285.122428 L579.982106,276.121327 L595.633326,250.562836 L600.845252,241.770344 L591.842133,217.95799 Z" id="Shape" fill="#FFCB52"></path>
                    <path d="M611.848206,263.156651 C612.620343,266.339873 615.261052,271.2306 623.970759,273.077178 L633.560702,280.911613 L643.729748,285.547373 L647.868403,287.424856 L649.628876,274.722873 L645.636927,272.536339 L641.004104,269.994397 C641.004104,269.994397 630.51076,250.956876 613.886648,258.99992 C612.313568,259.732139 611.464468,261.4636 611.848206,263.156651 Z" id="Shape" fill="#000000" opacity="0.1"></path>
                    <path d="M612.396423,262.074974 C613.16856,265.258196 615.809269,270.148923 624.518976,271.995501 L634.108919,279.837662 L644.277966,284.473422 L648.416621,286.350905 L650.177093,273.648922 L646.185144,271.470114 L641.552321,268.920446 C641.552321,268.920446 631.058978,249.890651 614.434865,257.925969 C612.865157,258.657521 612.016708,260.384438 612.396423,262.074974 Z" id="Shape" fill="#FFE8D1"></path>
                    <ellipse id="Oval" fill="#000000" opacity="0.1" cx="631.12847" cy="173.910542" rx="23.225885" ry="23.2406109"></ellipse>
                    <ellipse id="Oval" fill="#FFE8D1" cx="631.12847" cy="173.369703" rx="23.225885" ry="23.2406109"></ellipse>
                    <path d="M645.513385,223.018695 L638.564151,209.435917 C638.564151,209.435917 648.787246,205.310091 649.528498,200.519805 C650.26975,195.72952 659.319197,206.129075 657.357969,209.57499 C655.39674,213.020905 645.513385,223.018695 645.513385,223.018695 Z" id="Shape" fill="#000000" opacity="0.1"></path>
                    <path d="M645.513385,221.937017 L638.564151,208.35424 C638.564151,208.35424 648.787246,204.228413 649.528498,199.438128 C650.26975,194.647842 659.319197,205.055124 657.357969,208.493313 C655.39674,211.931502 645.513385,221.937017 645.513385,221.937017 Z" id="Shape" fill="#FFCB52"></path>
                    <path d="M588.367516,257.014269 L626.974372,308.927056 C626.974372,308.927056 612.751606,316.653323 593.12388,302.800127 L584.630372,292.717348 L560.501087,251.999922 L588.367516,257.014269 Z" id="Shape" fill="#F6F8FB"></path>
                    <path d="M580.769686,285.238322 L584.28291,285.145607 C584.28291,285.145607 605.748323,264.284686 611.014298,274.838767 C616.280273,285.392847 597.648604,295.236111 597.648604,295.236111 L591.981117,298.326618 L584.553158,300.489973 L579.827679,294.138982 L580.769686,285.238322 Z" id="Shape" fill="#FFE8D1"></path>
                    <path d="M585.950726,296.503219 C586.275024,297.700791 586.583879,299.021982 586.043383,300.134565 C585.918646,300.434887 585.691582,300.681257 585.402509,300.829929 C585.158612,300.931475 584.89276,300.968718 584.630372,300.938096 C582.77087,300.779037 581.040811,299.920362 579.789072,298.535227 C578.553643,297.160043 577.49767,295.633493 576.646474,293.992183 C575.689024,292.331035 574.692967,290.476731 575.040429,288.583796 C575.418776,286.513156 577.264184,285.07607 579.024656,283.948036 C582.584209,281.591524 582.669144,284.334349 583.479888,287.363045 L585.950726,296.503219 Z" id="Shape" fill="#000000" opacity="0.1"></path>
                    <path d="M585.41023,296.503219 C585.734528,297.700791 586.043383,299.021982 585.502887,300.134565 C585.37815,300.434887 585.151086,300.681257 584.862013,300.829929 C584.618116,300.931475 584.352264,300.968718 584.089876,300.938096 C582.230374,300.779037 580.500315,299.920362 579.248576,298.535227 C578.013147,297.160043 576.957174,295.633493 576.105978,293.992183 C575.148528,292.331035 574.152471,290.476731 574.499933,288.583796 C574.87828,286.513156 576.723688,285.07607 578.48416,283.948036 C582.043713,281.591524 582.128648,284.334349 582.939392,287.363045 L585.41023,296.503219 Z" id="Shape" fill="#FFCB52"></path>
                    <polygon id="Shape" fill="#000000" opacity="0.1" points="595.625605 250.562836 597.424684 247.526413 595.849525 253.166588"></polygon>
                    <path d="M644.277966,284.442517 L648.416621,286.319999 L650.177093,273.618017 L646.185144,271.439209 C648.910788,274.576074 646.524885,280.401679 644.277966,284.442517 Z" id="Shape" fill="#000000" opacity="0.1"></path>
                    <path d="M660.886635,269.700799 C660.886635,269.700799 647.520941,270.512057 641.853455,266.865259" id="Shape" fill="#000000" opacity="0.1"></path>
                    <g id="Group" opacity="0.1" transform="translate(602.018900, 203.200820)" fill="#000000">
                        <path d="M0.308854853,3.18322197 C0.656316564,3.13686437 0.988335531,3.0827805 1.34351861,3.04414917 C2.80486374,3.25071765 4.27698937,3.37196769 5.75242165,3.40728371 C3.93491354,3.45728515 2.11611861,3.38242203 0.308854853,3.18322197 Z" id="Shape"></path>
                        <path d="M30.8700426,7.36313237 L17.6819404,0.710816556 C17.9555969,0.495001558 18.2136224,0.260049442 18.4540775,0.00772626646 L32.2135612,6.96136649 L30.8700426,7.36313237 Z" id="Shape"></path>
                    </g>
                    <path d="M683.116463,251.999922 L691.941991,262.816695 L693.74107,292.17651 C693.74107,292.17651 696.057482,307.126836 678.977808,303.526396 C661.898135,299.925956 642.069653,288.753774 642.069653,288.753774 C642.069653,288.753774 651.613268,275.959076 646.393621,271.099254 L670.87809,279.026403 C670.87809,279.026403 675.016745,278.12243 671.773769,274.52199 C668.530793,270.921549 667.959411,264.431485 667.959411,264.431485 L683.116463,251.999922 Z" id="Shape" fill="#FFCB52"></path>
                    <path d="M687.077527,282.989978 L691.941991,288.568343 C689.391115,287.78765 687.504972,285.624701 687.077527,282.989978 Z" id="Shape" fill="#000000" opacity="0.1"></path>
                    <polygon id="Shape" fill="#000000" opacity="0.1" points="678.800217 282.086005 686.359439 291.813375 682.583689 292.717348"></polygon>
                    <path d="M603.401026,162.699729 C602.567118,160.667721 603.20027,158.318935 604.173163,156.36419 C605.146056,154.409444 606.543624,152.632403 607.261711,150.561763 C608.38131,147.471257 608.033848,144.009889 609.253825,140.96574 C611.392645,135.634616 617.469364,133.239473 622.920652,131.439253 C624.526698,130.90614 626.240842,130.365302 627.893216,130.759341 C630.070642,131.284727 631.529981,133.285831 633.298175,134.622475 C640.695249,140.139029 652.717424,134.066184 659.867414,139.907241 C662.608501,142.140132 663.936577,145.72512 664.34581,149.232846 C664.755042,152.740571 664.34581,156.30238 664.307203,159.84101 C664.191382,166.022024 665.341867,172.805686 669.982411,176.908334 C671.379979,178.144536 673.024631,179.079415 674.383592,180.354249 C675.742554,181.629083 676.815824,183.444755 676.576462,185.275881 C676.384342,186.126571 676.126179,186.960965 675.804325,187.771465 C674.87776,191.001044 676.252164,194.423781 677.927702,197.336583 C682.93115,205.990002 691.741235,213.121347 701.740411,213.32223 C701.068652,218.367482 695.833562,221.295737 691.185296,223.366377 C685.263005,226.001034 679.039579,228.589333 672.56907,228.257104 C666.098561,227.924874 659.350082,223.783595 658.199598,217.44033 C657.805808,215.253796 657.859858,212.572782 655.9604,211.421568 C654.817637,210.726204 653.335134,210.903908 652.099715,210.378522 C650.316078,209.605895 649.42812,207.643423 648.841296,205.789119 C647.635687,201.977636 646.988092,198.011527 646.918675,194.014289 C646.841461,189.278087 647.474613,184.109214 644.787576,180.20745 C642.301294,176.599283 637.88467,174.799063 635.020041,171.445863 C632.379332,168.355356 629.499261,164.662201 625.167571,164.075004 C619.345657,163.232841 606.945135,171.384053 603.401026,162.699729 Z" id="Shape" fill="#000000" opacity="0.1"></path>
                    <path d="M603.401026,161.618051 C602.567118,159.586043 603.20027,157.237258 604.173163,155.282513 C605.146056,153.327767 606.543624,151.550726 607.261711,149.480086 C608.38131,146.389579 608.033848,142.928212 609.253825,139.884063 C611.392645,134.552938 617.469364,132.157796 622.920652,130.357575 C624.526698,129.824463 626.240842,129.283624 627.893216,129.677664 C630.070642,130.20305 631.529981,132.204153 633.298175,133.540797 C640.695249,139.065078 652.717424,132.984506 659.867414,138.825564 C662.608501,141.066181 663.936577,144.643443 664.34581,148.151168 C664.755042,151.658893 664.34581,155.220702 664.307203,158.759333 C664.191382,164.940346 665.341867,171.724009 669.982411,175.826656 C671.379979,177.062859 673.024631,177.997737 674.383592,179.272571 C675.742554,180.547405 676.815824,182.363078 676.576462,184.194203 C676.383296,185.047133 676.125163,185.884014 675.804325,186.697514 C674.87776,189.919367 676.252164,193.34983 677.927702,196.254906 C682.93115,204.908325 691.741235,212.039669 701.740411,212.240552 C701.068652,217.285805 695.833562,220.21406 691.185296,222.284699 C685.263005,224.927083 679.039579,227.507656 672.56907,227.175426 C666.098561,226.843197 659.350082,222.701918 658.199598,216.320021 C657.805808,214.133488 657.859858,211.452473 655.9604,210.301259 C654.817637,209.605895 653.335134,209.783599 652.099715,209.258213 C650.316078,208.485587 649.42812,206.523115 648.841296,204.668811 C647.635687,200.857327 646.988092,196.891219 646.918675,192.89398 C646.841461,188.157778 647.474613,182.988906 644.787576,179.087141 C642.301294,175.478974 637.88467,173.678754 635.020041,170.325554 C632.379332,167.235047 629.499261,163.541892 625.167571,162.954696 C619.345657,162.189795 606.945135,170.302375 603.401026,161.618051 Z" id="Shape" fill="#141B2C"></path>
                    <path d="M619.862989,221.334368 L633.174634,210.517595 C633.174634,210.517595 624.063415,205.572784 622.974702,201.354242 C621.885989,197.1357 614.597014,203.355345 615.338266,207.141216 C616.079517,210.927087 619.862989,221.334368 619.862989,221.334368 Z" id="Shape" fill="#000000" opacity="0.1"></path>
                    <path d="M620.403485,219.711852 L633.71513,208.895079 C633.71513,208.895079 624.603911,203.950268 623.515198,199.731726 C622.426485,195.513184 615.13751,201.732829 615.878762,205.5187 C616.620013,209.304571 620.403485,219.711852 620.403485,219.711852 Z" id="Shape" fill="#FFCB52"></path>
                    <ellipse id="Oval" fill="#000000" opacity="0.1" cx="634.232461" cy="217.950264" rx="1.05782787" ry="1.05849857"></ellipse>
                    <ellipse id="Oval" fill="#000000" opacity="0.1" cx="634.232461" cy="223.837679" rx="1.05782787" ry="1.05849857"></ellipse>
                    <ellipse id="Oval" fill="#000000" opacity="0.1" cx="634.232461" cy="229.717368" rx="1.05782787" ry="1.05849857"></ellipse>
                    <g id="Group" opacity="0.1" transform="translate(602.791037, 137.527551)" fill="#000000">
                        <path d="M5.96862004,9.07836363 C7.01872654,6.18101353 6.79480678,2.93598143 7.77542094,0.0231788008 C7.32565956,0.669108482 6.95008931,1.36370601 6.65582209,2.09381833 C5.43584542,5.1379675 5.77558576,8.61478761 4.66370829,11.6975681 C4.66370829,11.751652 4.60965869,11.8134621 4.58649457,11.8752723 C5.13139153,10.9870476 5.59402403,10.0508513 5.96862004,9.07836363 Z" id="Shape"></path>
                        <path d="M89.9694188,81.8829768 C84.047127,84.5253601 77.8237017,87.1059332 71.3454711,86.7737038 C64.8672406,86.4414743 58.1342048,82.3001952 56.9837205,75.9182987 C56.5899305,73.7317652 56.6439801,71.0507506 54.7445228,69.8995368 C53.6017598,69.2041728 52.1192565,69.3818769 50.8838371,68.8564908 C49.092479,68.0838641 48.2122426,66.1213923 47.6254184,64.2670882 C46.4183379,60.4506543 45.7707252,56.4792341 45.7027969,52.4768049 C45.6255832,47.7406033 46.2510143,42.5717307 43.5716984,38.6699659 C41.0854169,35.0617993 36.6687925,33.2615791 33.8041637,29.9083792 C31.1557333,26.8178725 28.2833832,23.1247169 23.9439725,22.5375206 C17.9985166,21.7648939 5.59027285,29.8774742 2.05388478,21.1931502 C1.4869651,19.551631 1.56704692,17.7555556 2.27780454,16.1710767 C2.02299929,16.6037476 1.77591541,17.0364186 1.55199564,17.4768158 C0.548217365,19.4315613 -0.0849350847,21.7803464 0.779858505,23.8123546 C4.32396795,32.4966787 16.7244903,24.3454671 22.6776676,25.1567251 C27.0093569,25.7439214 29.8894284,29.4602558 32.5378588,32.5275837 C35.4024876,35.8498785 39.8113906,37.6810038 42.2976722,41.2968967 C44.9847094,45.1600301 44.3592783,50.367534 44.436492,55.0960094 C44.5000489,59.0956976 45.1451118,63.0648292 46.3513921,66.8785664 C46.9382163,68.7251442 47.8261741,70.7416999 49.6098108,71.467969 C50.8452302,71.9856289 52.3277335,71.815651 53.4704965,72.511015 C55.3622325,73.6545025 55.3159042,76.3741485 55.7019728,78.5220507 C56.8524571,84.9039472 63.6009357,89.0529525 70.0714449,89.385182 C76.5419541,89.7174115 82.7731007,87.129112 88.6876712,84.4867288 C92.9498681,82.5937934 97.6985115,79.9591363 98.9725378,75.6478794 C96.9032103,78.4834194 93.2896085,80.4072598 89.9694188,81.8829768 Z" id="Shape"></path>
                    </g>
                </g>
            </g>
        </g>
    </g>
</svg>