<?xml version="1.0" encoding="UTF-8"?>
<svg width="69px" height="60px" viewBox="0 0 69 60" version="1.1" xmlns="http://www.w3.org/2000/svg" xmlns:xlink="http://www.w3.org/1999/xlink">
    <!-- Generator: Sketch 50.2 (55047) - http://www.bohemiancoding.com/sketch -->
    <title>vision</title>
    <desc>Created with Sketch.</desc>
    <defs></defs>
    <g id="Page-1" stroke="none" stroke-width="1" fill="none" fill-rule="evenodd">
        <g id="01-Home" transform="translate(-1285.000000, -1959.000000)" fill-rule="nonzero">
            <g id="Group-10" transform="translate(255.000000, 1252.000000)">
                <g id="Group-8" transform="translate(990.000000, 540.000000)">
                    <g id="vision" transform="translate(40.000000, 167.000000)">
                        <path d="M0,30 C12.0119297,10.8077376 37.1957168,5.05710407 56.250498,17.1576923 C61.3981406,20.4266063 65.7545742,24.8148869 69,30 C56.9880703,49.1922624 31.8042832,54.9428959 12.749502,42.8423077 C7.60185938,39.5733937 3.24542578,35.1851131 0,30 Z" id="SVGCleanerId_0_1_" fill="#CBCFD3" opacity="0.200000003"></path>
                        <ellipse id="Oval" fill="#1598FC" cx="34.5" cy="30" rx="19.0342969" ry="19.1728507"></ellipse>
                        <g id="Group" transform="translate(4.716797, 0.000000)" fill="#E8594A">
                            <rect id="Rectangle-path" x="28.5932227" y="0.042081448" width="2.37928711" height="19.1728507"></rect>
                            <rect id="Rectangle-path" x="0.0417773438" y="28.8013575" width="19.0342969" height="2.39660633"></rect>
                            <rect id="Rectangle-path" x="28.5932227" y="40.7850679" width="2.37928711" height="19.1728507"></rect>
                            <path d="M2.42119922,10.8270136 L0.0417773438,10.8270136 L0.0417773438,1.24045249 C0.0417773438,0.578959276 0.574775391,0.042081448 1.23148828,0.042081448 L10.7487715,0.042081448 L10.7487715,2.43868778 L2.42119922,2.43868778 L2.42119922,10.8270136 Z" id="Shape"></path>
                            <path d="M59.5246289,10.8270136 L57.1453418,10.8270136 L57.1453418,2.43882353 L48.8177695,2.43882353 L48.8177695,0.042081448 L58.3350527,0.042081448 C58.9917656,0.042081448 59.5247637,0.578959276 59.5247637,1.24045249 L59.5247637,10.8270136 L59.5246289,10.8270136 Z" id="Shape"></path>
                            <path d="M58.334918,59.9579186 L48.8176348,59.9579186 L48.8176348,57.5613122 L57.145207,57.5613122 L57.145207,49.1731222 L59.5244942,49.1731222 L59.5244941,58.7596833 C59.5246289,59.4210407 58.9916309,59.9579186 58.334918,59.9579186 Z" id="Shape"></path>
                            <path d="M10.7487715,59.9579186 L1.23148828,59.9579186 C0.574775391,59.9579186 0.0417773438,59.4210407 0.0417773438,58.7595475 L0.0417773438,49.1729864 L2.42106445,49.1729864 L2.42106445,57.5611765 L10.7486367,57.5611765 L10.7487715,59.9579186 Z" id="Shape"></path>
                        </g>
                        <path d="M53.5344316,30 C53.5320059,27.1432127 52.8920039,24.3236199 51.6618633,21.7495928 C40.8717187,30.0238914 28.0305762,35.2546154 17.4450059,38.4733032 C22.0847168,47.9675566 33.4875059,51.8752941 42.9131484,47.20181 C49.419498,43.9759276 53.5380703,37.3049321 53.5344316,30 Z" id="Shape" fill="#1072BD" opacity="0.100000001"></path>
                        <ellipse id="Oval" fill="#FFFFFF" cx="34.5" cy="30" rx="7.13799609" ry="7.18995475"></ellipse>
                        <rect id="Rectangle-path" fill="#E8594A" x="45.2071289" y="28.8013575" width="19.0342969" height="2.39660633"></rect>
                    </g>
                </g>
            </g>
        </g>
    </g>
</svg>