<?xml version="1.0" encoding="UTF-8"?>
<svg width="60px" height="60px" viewBox="0 0 60 60" version="1.1" xmlns="http://www.w3.org/2000/svg" xmlns:xlink="http://www.w3.org/1999/xlink">
    <!-- Generator: Sketch 50.2 (55047) - http://www.bohemiancoding.com/sketch -->
    <title>goal</title>
    <desc>Created with Sketch.</desc>
    <defs></defs>
    <g id="Page-1" stroke="none" stroke-width="1" fill="none" fill-rule="evenodd">
        <g id="01-Home" transform="translate(-1285.000000, -1429.000000)" fill-rule="nonzero">
            <g id="Group-10" transform="translate(255.000000, 1252.000000)">
                <g id="Group-8" transform="translate(990.000000, 0.000000)">
                    <g id="goal" transform="translate(40.000000, 177.000000)">
                        <path d="M30.0002344,8.28608187 C28.2869531,8.28608187 26.8982813,6.90011696 26.8982813,5.19017544 L26.8982813,2.09426901 L25.8644531,0.0304093567 L31.0342969,0.0304093567 C32.176875,0.0304093567 33.1021875,0.954035088 33.1021875,2.09426901 L33.1021875,5.19017544 C33.1021875,6.90011696 31.7135156,8.28608187 30.0002344,8.28608187 Z" id="Shape" fill="#FEC9A3"></path>
                        <polyline id="Shape" fill="#787D82" points="25.8644531 18.6054971 25.8644531 33.0528655 36.2040234 33.0528655 34.1361328 30.9890058 34.1361328 18.6054971"></polyline>
                        <path d="M38.2720312,14.4777778 L38.2720312,10.3499415 C38.2720312,9.20959064 37.3466016,8.28608187 36.2041406,8.28608187 L21.7285547,8.28608187 L21.7285547,2.20783626 C21.7699219,1.16035088 21.0419531,0.237894737 20.0122266,0.0304093567 C18.8872266,-0.163625731 17.8170703,0.589707602 17.6227734,1.71356725 C17.6010937,1.8394152 17.5906641,1.96748538 17.5927734,2.09438596 L17.5927734,9.3180117 C17.5927734,11.0279532 18.9814453,12.4139181 20.6947266,12.4139181 L25.8645703,12.4139181 L25.8645703,18.605614 L34.13625,18.605614 L34.13625,15.5097076 C34.13625,17.2196491 35.5249219,18.605614 37.2382031,18.605614 L44.4759375,18.605614 C45.6185156,18.605614 46.5438281,17.6819883 46.5438281,16.5417544 C46.5438281,15.4014035 45.6183984,14.4778947 44.4759375,14.4778947 C44.4758203,14.4777778 38.2720312,14.4777778 38.2720312,14.4777778 Z" id="Shape" fill="#4398D1"></path>
                        <path d="M30.6103125,33.0528655 L33.5260547,33.0528655 L31.0341797,30.565848 L31.0341797,21.7014035 L28.9662589,21.7014035 L28.9662891,30.9890058 C28.9641797,31.2635088 29.0728125,31.5266667 29.2661719,31.7216374 L30.6103125,33.0528655 Z" id="Shape" fill="#616569"></path>
                        <polygon id="Shape" fill="#DE4C3C" points="42.4078125 7.25415205 51.7135547 3.12631579 42.4078125 0.0304093567"></polygon>
                        <rect id="Rectangle-path" fill="#D9D9D9" x="41.3790234" y="0.0304093567" width="2.06789063" height="35.0863158"></rect>
                        <polygon id="Shape" fill="#3E8CC7" points="40.3399219 29.9569591 38.2720313 29.9569591 37.2379688 33.0528655 23.7964453 33.0528655 17.5926563 41.3084211 13.4567578 41.3084211 0.015234375 59.8835088 59.9852344 59.8835088"></polygon>
                        <path d="M44.4758203,37.1807018 C36.2041406,48.5321637 23.7964453,55.7557895 10.2929297,59.8836257 L59.9853516,59.8836257 L44.4758203,37.1807018 Z" id="Shape" fill="#3582BD"></path>
                        <g id="Group" transform="translate(0.000000, 13.450292)" fill="#D9D9D9">
                            <path d="M10.3549219,1.02748538 C9.78210937,1.03157895 9.21550781,1.1502924 8.69027344,1.37836257 C6.59132812,-0.553450292 3.32085937,-0.422339181 1.38527344,1.67251462 C0.508476562,2.62187135 0.019453125,3.86432749 0.015234375,5.15532164 L14.4907031,5.15532164 C14.4908203,2.87567251 12.6389063,1.02748538 10.3549219,1.02748538 Z" id="Shape"></path>
                            <path d="M55.8494531,9.28304094 C55.5362109,9.28409357 55.2239062,9.32222222 54.9188672,9.39660819 C54.0110156,8.66491228 52.8808594,8.26046784 51.7135547,8.25111111 C48.85875,8.25111111 46.5437109,10.5616374 46.5437109,13.4108772 L59.9852344,13.4108772 C59.9852344,11.1312281 58.1334375,9.28304094 55.8494531,9.28304094 Z" id="Shape"></path>
                            <path d="M17.5926562,16.5066667 C17.5926562,14.2271345 15.7408594,12.3788304 13.4567578,12.3788304 C11.1727734,12.3788304 9.32085937,14.2270175 9.32085937,16.5066667 L17.5926562,16.5066667 Z" id="Shape"></path>
                        </g>
                        <polygon id="Shape" fill="#4398D1" points="28.9662891 48.5321637 24.8303906 41.3084211 17.5926562 41.3084211 13.4567578 41.3084211 0.015234375 59.8835088 41.4876563 59.8835088 35.1700781 48.5321637"></polygon>
                    </g>
                </g>
            </g>
        </g>
    </g>
</svg>