<?xml version="1.0" encoding="UTF-8"?>
<svg width="60px" height="59px" viewBox="0 0 60 59" version="1.1" xmlns="http://www.w3.org/2000/svg" xmlns:xlink="http://www.w3.org/1999/xlink">
    <!-- Generator: Sketch 50.2 (55047) - http://www.bohemiancoding.com/sketch -->
    <title>puzzle</title>
    <desc>Created with Sketch.</desc>
    <defs></defs>
    <g id="Page-1" stroke="none" stroke-width="1" fill="none" fill-rule="evenodd">
        <g id="01-Home" transform="translate(-775.000000, -2230.000000)" fill-rule="nonzero">
            <g id="Group-10" transform="translate(255.000000, 1252.000000)">
                <g id="Group-25" transform="translate(480.000000, 270.000000)">
                    <g id="Group-8" transform="translate(0.000000, 540.000000)">
                        <g id="puzzle" transform="translate(40.000000, 168.000000)">
                            <path d="M52.7288672,27.1925042 C52.9484766,25.9984738 52.7247656,24.7663077 52.0983984,23.7221541 C51.7892578,23.258382 51.9183984,22.6347645 52.3872656,22.3289833 C52.5631641,22.2143444 52.7716406,22.1559237 52.9831641,22.1629944 L58.8916406,22.1629944 L58.8916406,6.06867906 C58.8916406,2.73510746 56.1601172,0.0332673267 52.7899219,0.0332673267 L36.6101953,0.0332673267 L36.6101953,5.88762135 C36.6142969,6.44284955 37.0729687,6.89050954 37.6342969,6.88645255 C37.8021094,6.88540932 37.9678125,6.84321661 38.1153516,6.76277228 C39.1872656,6.11794253 40.4644922,5.89573533 41.6949609,6.13915479 C44.4580078,6.63306448 46.2936328,9.24936006 45.7942969,11.9834243 C45.2949609,14.7164453 42.6499219,16.5321227 39.8858203,16.038213 C39.3092578,15.9345858 38.7549609,15.7344023 38.2475391,15.4436899 C37.7614453,15.1650326 37.1390625,15.329051 36.8583984,15.8098624 C36.7607812,15.9758512 36.7140234,16.1669935 36.7221094,16.359063 L36.6101953,22.1631104 L42.3864844,22.1631104 C42.946875,22.1329727 43.426875,22.5574499 43.4573437,23.1126781 C43.4684766,23.3078773 43.4207812,23.5029606 43.3221094,23.6719633 C42.8725781,24.435489 42.6366797,25.3035692 42.6407812,26.1867182 C42.6407812,28.9640184 44.9177344,31.216228 47.7264844,31.2151847 C50.1844922,31.2151847 52.2905859,29.4749674 52.7288672,27.0819222 L52.7288672,27.1925042 Z" id="Shape" fill="#88B337"></path>
                            <path d="M27.4576172,8.08048298 C27.1117969,6.01640184 25.4765625,4.39893745 23.3898047,4.05687515 C25.4765625,3.71481285 27.1117969,2.09734847 27.4576172,0.0332673267 C27.8034375,2.09734847 29.4386719,3.71481285 31.5254297,4.05687515 C29.4386719,4.39882154 27.8034375,6.01628592 27.4576172,8.08048298 Z" id="Shape" fill="#FDB62F"></path>
                            <g id="Group" transform="translate(47.695312, 35.237865)" fill="#D9D9D9">
                                <path d="M0.10125,7.04316832 L0.10125,5.0313644 C2.9090625,5.0313644 5.18601562,2.77915479 5.18601562,0.00185462449 L7.21992187,0.00185462449 C7.21992188,3.89065443 4.03277344,7.04316832 0.10125,7.04316832 Z" id="Shape"></path>
                                <path d="M0.10125,12.0725622 L0.10125,10.0607583 C5.7178125,10.0607583 10.2707812,5.55738227 10.2707812,0.00173871046 L12.3046875,0.00173871046 C12.3046875,6.66888191 6.84058594,12.0725622 0.10125,12.0725622 Z" id="Shape"></path>
                            </g>
                            <g id="Group" transform="translate(5.390625, 41.844965)" fill="#FFA83D">
                                <path d="M0.802617187,16.530384 L16.9822266,16.530384 L0.090703125,16.530384 C0.32765625,16.5507254 0.565664062,16.5507254 0.802617187,16.530384 Z" id="Shape"></path>
                                <path d="M16.9822266,0.436068582 C17.00769,0.312388312 17.00769,0.187664815 16.9822266,0.0638686308 L16.9822266,0.184535136 C16.9949583,0.267993238 16.9949583,0.352494567 16.9822266,0.436068582 Z" id="Shape"></path>
                            </g>
                            <path d="M31.4541797,24.094354 C31.3809375,23.7765177 31.2761719,23.4656363 31.1389453,23.1688964 C30.4717969,21.6540159 29.0958984,20.5605989 27.4576172,20.2417194 C26.2504687,20.0163825 25.0017187,20.2387056 23.9491406,20.8653369 C23.4802734,21.1711181 22.8498047,21.0433808 22.5406641,20.5796088 C22.4247656,20.4056218 22.3657031,20.1994108 22.3728516,19.9901859 L22.3728516,14.1157788 L6.10171875,14.1157788 C2.73152344,14.1157788 0,16.8176189 0,20.1511905 L0,23.1688964 L0,36.2456218 L6.10171875,36.2456218 L6.31523437,36.2456218 C6.45457031,36.1972857 6.58265625,36.1228689 6.69152344,36.0243419 L6.75257812,35.9639507 C6.99667969,35.5867665 6.99667969,35.1038686 6.75257812,34.7266844 C6.54914062,34.3897223 6.39257812,34.0276069 6.28476562,33.6504226 C5.67867187,32.0942767 6,30.3329631 7.11867187,29.0836416 C7.835625,28.1230621 8.8790625,27.4520357 10.0576172,27.1925042 C10.2782812,27.1441681 10.5030469,27.1140304 10.72875,27.1019754 C13.5711328,26.8575127 16.0758984,28.9387491 16.3229297,31.7502439 C16.3371094,31.9071915 16.3433203,32.0650664 16.3422656,32.222014 C16.3463672,33.105163 16.1103516,33.9732432 15.6609375,34.7367689 C15.3792188,35.2175803 15.5450391,35.8331997 16.0311328,36.111857 C16.2030469,36.210384 16.3992187,36.2567496 16.5965625,36.2456218 L19.5761719,36.2456218 L22.3727344,36.2456218 L22.3727344,30.2102101 C22.3727344,29.4356725 23.2777734,29.1540014 23.9592187,29.5463704 C24.7311328,29.9910167 25.60875,30.2243516 26.5016016,30.2202946 C29.3094141,30.2153103 31.5822656,27.9590437 31.5761719,25.1807003 C31.5762891,24.8155711 31.5345703,24.4514851 31.4541797,24.094354 Z" id="Shape" fill="#4398D1"></path>
                            <path d="M38.8678125,36.2456218 C38.3064844,36.2496788 37.8539062,36.7033663 37.8580078,37.2585945 C37.8590625,37.4245834 37.9017187,37.5884859 37.9830469,37.7344216 C39.4219922,40.120396 38.6328516,43.2075344 36.2206641,44.6297996 C35.7580078,44.9024294 35.2545703,45.1015697 34.72875,45.2182951 C34.0076953,45.3692152 33.2633203,45.3692152 32.5422656,45.2182951 C29.7975,44.6297996 28.0555078,41.9521855 28.6503516,39.237247 C28.7601562,38.7342961 28.9483594,38.2515141 29.2066406,37.8048974 C29.5188281,37.3432118 29.3937891,36.7185511 28.9270312,36.4097561 C28.7917969,36.3202705 28.6361719,36.2639362 28.4744531,36.2457377 L22.3727344,36.2457377 L22.3727344,41.8788119 C22.3971094,42.0115334 22.3971094,42.1484279 22.3727344,42.2811495 C22.2059766,42.8866844 21.5733984,43.2438155 20.9612109,43.0778266 C20.9012109,43.0617146 20.8422656,43.0406182 20.78625,43.0154649 C20.0164453,42.5658343 19.1377734,42.3324994 18.2438672,42.3415407 C15.4634766,42.3576527 13.2232031,44.5997778 13.2394922,47.3499541 C13.2557812,50.1001304 15.5225391,52.3160589 18.3029297,52.2999469 C19.2151172,52.2949626 20.1079687,52.0444723 20.8879687,51.575716 C21.3812109,51.3091137 21.9984375,51.4882009 22.2679687,51.9750398 C22.3503516,52.1238735 22.3930078,52.2909056 22.3930078,52.4608355 L22.3726172,58.3754649 L38.64375,58.3754649 C42.0139453,58.3754649 44.7454687,55.6736247 44.7454687,52.3400531 L44.7454687,36.2456218 L38.8678125,36.2456218 Z" id="Shape" fill="#DE4C3C"></path>
                            <polygon id="Shape" fill="#FFA83D" points="22.3728516 36.265675 22.3728516 36.265675 22.3728516 36.2784067"></polygon>
                            <path d="M20.8880859,51.5754842 C18.5389453,53.0983627 15.3874219,52.4485487 13.8476953,50.1259792 C12.3080859,47.8034098 12.9650391,44.6850906 15.313125,43.1620961 C16.1816016,42.5987539 17.2046484,42.3120985 18.2429297,42.3413089 C19.1368359,42.3322676 20.0155078,42.5656025 20.7853125,43.015233 C21.3629297,43.2767351 22.0442578,43.0253176 22.30875,42.4539773 C22.3341797,42.3976431 22.3555078,42.3402656 22.3717969,42.2809177 C22.3819922,42.1974596 22.3819922,42.1129582 22.3717969,42.0295001 L22.3717969,36.2456218 L19.5752344,36.2456218 L16.595625,36.2456218 C16.0352344,36.2757595 15.5552344,35.8512823 15.5247656,35.2960541 C15.5136328,35.1008549 15.5613281,34.9057716 15.66,34.7367689 C16.1095312,33.9732432 16.3454297,33.105163 16.3413281,32.222014 C16.3402734,29.3995074 14.0278125,27.1120599 11.1741797,27.1131031 C11.0246484,27.1131031 10.8761719,27.1191306 10.7276953,27.1322289 C10.501875,27.144284 10.2772266,27.1744216 10.0565625,27.2227578 C8.90742187,27.4741753 7.884375,28.1190051 7.16847656,29.0434195 C6.04980469,30.2916977 5.72847656,32.0530113 6.33457031,33.6102004 C6.44238281,33.9873847 6.59894531,34.3495001 6.80238281,34.6864622 C7.04648437,35.0636465 7.04648437,35.5465443 6.80238281,35.9237286 L6.74132812,35.9841198 C6.63246094,36.0826467 6.504375,36.1571794 6.36503906,36.2053997 L6.10160156,36.2456218 L0,36.2456218 L0,52.3399372 C0.038671875,55.4260324 2.38265625,58.007206 5.48132813,58.3753489 L22.3728516,58.3753489 L22.3728516,52.4607196 C22.36875,51.9054914 21.9091406,51.4588747 21.3478125,51.4628157 C21.1880859,51.463859 21.0304688,51.5030379 20.8880859,51.5754842 Z" id="Shape" fill="#FDB62F"></path>
                            <path d="M22.3728516,52.9435016 L22.3728516,58.3753489 L38.6439844,58.3753489 C42.0141797,58.3753489 44.7457031,55.6735088 44.7457031,52.3399372 L44.7457031,40.9029317 C38.8780078,46.7371166 30.6711328,50.509191 22.3728516,52.9435016 Z" id="Shape" fill="#C94536"></path>
                            <path d="M2.03390625,56.7557981 C2.98171875,57.6419609 4.1878125,58.2093601 5.48132813,58.3753489 L22.3728516,58.3753489 L22.3728516,52.9435016 C15.7280859,54.8376527 8.91867188,56.114098 2.03390625,56.7557981 Z" id="Shape" fill="#FFA83D"></path>
                            <path d="M36.6101953,21.1570925 L36.6101953,22.1629944 L42.3864844,22.1629944 C42.946875,22.1328568 43.426875,22.557334 43.4573437,23.1125622 C43.4684766,23.3077614 43.4207812,23.5028447 43.3221094,23.6718474 C42.8725781,24.4353731 42.6366797,25.3034533 42.6407812,26.1866023 C42.6458203,28.9639024 44.9258203,31.2120551 47.7346875,31.2070708 C50.5425,31.2020865 52.8153516,28.9468631 52.8103125,26.1685197 C52.8083203,25.2682154 52.5631641,24.3850664 52.0983984,23.6105289 C51.85125,23.1116349 52.0597266,22.5091137 52.5631641,22.2646511 C52.6942969,22.2012461 52.8366797,22.1661241 52.9831641,22.1620671 L58.8916406,22.1620671 L58.8916406,9.16682927 C53.9593359,16.5300362 44.6237109,19.769022 36.6101953,21.1570925 Z" id="Shape" fill="#78A82F"></path>
                        </g>
                    </g>
                </g>
            </g>
        </g>
    </g>
</svg>