<?xml version="1.0" encoding="UTF-8"?>
<svg width="29px" height="20px" viewBox="0 0 29 20" version="1.1" xmlns="http://www.w3.org/2000/svg" xmlns:xlink="http://www.w3.org/1999/xlink">
    <!-- Generator: Sketch 50.2 (55047) - http://www.bohemiancoding.com/sketch -->
    <title>“</title>
    <desc>Created with Sketch.</desc>
    <defs></defs>
    <g id="Page-1" stroke="none" stroke-width="1" fill="none" fill-rule="evenodd">
        <g id="01-Home" transform="translate(-330.000000, -3074.000000)" fill="#141B2C">
            <g id="Group-26" transform="translate(0.000000, 2454.000000)">
                <g id="Group-14" transform="translate(250.000000, 504.000000)">
                    <g id="Group-19" transform="translate(80.000000, 116.000000)">
                        <path d="M6.99443414,20 C4.66294443,20 2.91435339,19.2473194 1.74860853,17.7419355 C0.582863683,16.2365516 0,14.3190081 0,11.9892473 C0,9.3369043 0.735304954,6.95341559 2.20593692,4.83870968 C3.67656889,2.72400376 5.79281241,1.11111667 8.55473098,0 L13.7736549,3.33333333 C11.8008559,4.15771022 10.1778048,5.02687715 8.90445269,5.94086022 C7.63110062,6.85484328 6.70748586,7.9569828 6.13358071,9.24731183 L6.4025974,9.46236559 C6.86889534,8.96057097 7.44279189,8.70967742 8.12430427,8.70967742 C9.59493623,8.70967742 10.8772363,9.1666621 11.971243,10.0806452 C13.0652497,10.9946282 13.6122449,12.3118194 13.6122449,14.0322581 C13.6122449,16.0394366 13.0293812,17.5358374 11.8636364,18.5215054 C10.6978915,19.5071734 9.07484033,20 6.99443414,20 Z M22.2207792,20 C19.8892895,20 18.1406985,19.2473194 16.9749536,17.7419355 C15.8092088,16.2365516 15.2263451,14.3190081 15.2263451,11.9892473 C15.2263451,9.3369043 15.96165,6.95341559 17.432282,4.83870968 C18.902914,2.72400376 21.0191575,1.11111667 23.7810761,0 L29,3.33333333 C27.027201,4.15771022 25.4041498,5.02687715 24.1307978,5.94086022 C22.8574457,6.85484328 21.9338309,7.9569828 21.3599258,9.24731183 L21.6289425,9.46236559 C22.0952404,8.96057097 22.669137,8.70967742 23.3506494,8.70967742 C24.8212813,8.70967742 26.1035814,9.1666621 27.1975881,10.0806452 C28.2915948,10.9946282 28.83859,12.3118194 28.83859,14.0322581 C28.83859,16.0394366 28.2557263,17.5358374 27.0899814,18.5215054 C25.9242366,19.5071734 24.3011854,20 22.2207792,20 Z" id="“"></path>
                    </g>
                </g>
            </g>
        </g>
    </g>
</svg>