<?xml version="1.0" encoding="UTF-8"?>
<svg width="97px" height="24px" viewBox="0 0 97 24" version="1.1" xmlns="http://www.w3.org/2000/svg" xmlns:xlink="http://www.w3.org/1999/xlink">
    <!-- Generator: Sketch 50.2 (55047) - http://www.bohemiancoding.com/sketch -->
    <title>logo</title>
    <desc>Created with Sketch.</desc>
    <defs></defs>
    <g id="Page-1" stroke="none" stroke-width="1" fill="none" fill-rule="evenodd">
        <g id="01-Home" transform="translate(-255.000000, -72.000000)" fill="#FFFFFF">
            <g id="Group-5" transform="translate(255.000000, 60.000000)">
                <g id="logo" transform="translate(0.000000, 12.000000)">
                    <path d="M0,19.477304 L12.6567455,4.35763411 L0.99138999,4.35763411 L0.99138999,0 L19.5634291,0 L19.5634291,4.09353508 L6.9066836,19.213205 L19.8938925,19.213205 L19.8938925,23.5708391 L0,23.5708391 L0,19.477304 Z M25.7611187,14.3663874 L21.0685394,14.3663874 L21.0685394,10.503939 L25.7611187,14.3663874 Z M21.0685394,6.50343879 L25.7611187,6.50343879 L25.7611187,23.5708391 L21.0685394,23.5708391 L21.0685394,6.50343879 Z M27.9602019,6.50343879 L32.4214569,6.50343879 L32.4214569,8.88033012 L32.5205959,8.88033012 C33.1154329,7.88995378 33.8865062,7.1691907 34.8338392,6.71801926 C35.7811721,6.26684781 36.7505216,6.04126547 37.7419165,6.04126547 C38.9976834,6.04126547 40.0276172,6.21182773 40.8317486,6.55295736 C41.6358801,6.89408699 42.2692618,7.3672597 42.7319128,7.97248968 C43.1945638,8.57771967 43.5195161,9.31498878 43.7067796,10.1843191 C43.8940431,11.0536495 43.9876734,12.0165009 43.9876734,13.0729023 L43.9876734,23.5708391 L39.2950942,23.5708391 L39.2950942,13.9312242 C39.2950942,12.522689 39.0747875,11.4718054 38.6341675,10.778542 C38.1935475,10.0852785 37.4114588,9.73865199 36.2878778,9.73865199 C35.0100799,9.73865199 34.0847918,10.1182906 33.5119859,10.8775791 C32.9391799,11.6368676 32.6527812,12.8858235 32.6527812,14.6244842 L32.6527812,23.5708391 L27.9602019,23.5708391 L27.9602019,6.50343879 Z M57.5546952,13.2049519 C57.3343853,12.0165002 56.9433409,11.1141709 56.3815504,10.4979367 C55.81976,9.88170256 54.9660716,9.5735901 53.8204596,9.5735901 C53.0714057,9.5735901 52.4490393,9.70013629 51.9533418,9.95323246 C51.4576443,10.2063286 51.0610923,10.5199431 50.7636738,10.8940853 C50.4662553,11.2682275 50.256964,11.664372 50.1357935,12.0825309 C50.014623,12.5006898 49.9430233,12.8748264 49.9209923,13.2049519 L57.5546952,13.2049519 Z M49.9209923,16.176066 C49.9870853,17.6946431 50.372622,18.7950447 51.077614,19.477304 C51.7826059,20.1595632 52.7960167,20.5006878 54.1178766,20.5006878 C55.0652096,20.5006878 55.8803443,20.2641014 56.5633053,19.7909216 C57.2462662,19.3177418 57.6648489,18.817059 57.8190659,18.2888583 L61.9498575,18.2888583 C61.2889276,20.3356361 60.2755168,21.7991703 58.9095949,22.6795048 C57.543673,23.5598393 55.8913728,24 53.9526449,24 C52.608754,24 51.3970673,23.7854217 50.3175483,23.3562586 C49.2380294,22.9270955 48.3237566,22.3163726 47.5747027,21.5240715 C46.8256487,20.7317705 46.2473437,19.785425 45.8397702,18.6850069 C45.4321967,17.5845887 45.228413,16.3741469 45.228413,15.0536451 C45.228413,13.7771601 45.4377044,12.5887263 45.8562934,11.4883081 C46.2748823,10.38789 46.8697104,9.43604253 47.6407953,8.63273728 C48.4118803,7.82943202 49.3316607,7.19670107 50.4001641,6.73452545 C51.4686676,6.27234982 52.652816,6.04126547 53.9526449,6.04126547 C55.4066909,6.04126547 56.6734543,6.3218679 57.7529732,6.88308116 C58.8324922,7.44429442 59.7192266,8.19806955 60.413203,9.14442916 C61.1071795,10.0907888 61.6083772,11.1691824 61.9168112,12.3796424 C62.2252452,13.5901023 62.3353985,14.8555642 62.2472745,16.176066 L49.9209923,16.176066 Z M69.4694004,6.50343879 L72.906219,6.50343879 L72.906219,9.63961486 L69.4694004,9.63961486 L69.4694004,18.090784 C69.4694004,18.8830851 69.6015844,19.4112779 69.8659564,19.6753783 C70.1303284,19.9394786 70.6590644,20.0715268 71.4521804,20.0715268 C71.7165524,20.0715268 71.969905,20.0605228 72.212246,20.0385144 C72.454587,20.0165061 72.685909,19.983494 72.906219,19.9394773 L72.906219,23.5708391 C72.509661,23.6368642 72.0690477,23.6808802 71.5843657,23.7028886 C71.0996837,23.7248969 70.6260244,23.735901 70.1633734,23.735901 C69.4363504,23.735901 68.747892,23.6863829 68.0979776,23.5873453 C67.4480631,23.4883076 66.8752657,23.2957373 66.3795683,23.0096286 C65.8838708,22.7235199 65.4928264,22.3163713 65.2064234,21.7881706 C64.9200205,21.2599698 64.7768211,20.5667168 64.7768211,19.7083906 L64.7768211,9.63961486 L61.9348365,9.63961486 L61.9348365,6.50343879 L64.7768211,6.50343879 L64.7768211,1.38651994 L69.4694004,1.38651994 L69.4694004,6.50343879 Z M78.4760282,14.3663874 L73.783449,14.3663874 L73.783449,10.503939 L78.4760282,14.3663874 Z M73.783449,6.50343879 L78.4760282,6.50343879 L78.4760282,23.5708391 L73.783449,23.5708391 L73.783449,6.50343879 Z M92.3074207,12.5116919 C91.9989867,10.5529476 90.8423766,9.5735901 88.8375557,9.5735901 C88.0885018,9.5735901 87.4606277,9.74415235 86.9539148,10.085282 C86.4472018,10.4264116 86.0341268,10.8665723 85.7146773,11.4057772 C85.3952278,11.9449821 85.1694134,12.539199 85.0372275,13.1884457 C84.9050415,13.8376924 84.8389495,14.4814273 84.8389495,15.1196699 C84.8389495,15.735904 84.9050415,16.363133 85.0372275,17.0013755 C85.1694134,17.639618 85.3842125,18.2173289 85.6816309,18.7345254 C85.9790494,19.251722 86.3811091,19.6753766 86.8878221,20.0055021 C87.3945351,20.3356275 88.0113938,20.5006878 88.7384167,20.5006878 C89.8619977,20.5006878 90.7267014,20.1870733 91.3325539,19.5598349 C91.9384064,18.9325966 92.3184354,18.0907893 92.4726524,17.0343879 L97,17.0343879 C96.691566,19.3012493 95.8103393,21.0288799 94.3562934,22.2173315 C92.9022474,23.4057831 91.040656,24 88.7714631,24 C87.4936652,24 86.3205321,23.7854217 85.2520286,23.3562586 C84.1835252,22.9270955 83.2747601,22.3273766 82.5257061,21.5570839 C81.7766522,20.7867912 81.1928395,19.8679558 80.7742505,18.8005502 C80.3556615,17.7331446 80.1463702,16.5612168 80.1463702,15.2847318 C80.1463702,13.96423 80.3391385,12.7372821 80.724681,11.6038514 C81.1102235,10.4704207 81.6775132,9.49106327 82.4265671,8.66574966 C83.1756211,7.84043604 84.0898938,7.19670107 85.1694128,6.73452545 C86.2489317,6.27234982 87.4826492,6.04126547 88.8706021,6.04126547 C89.884028,6.04126547 90.8588851,6.17331367 91.7952026,6.43741403 C92.73152,6.70151439 93.5686854,7.10316099 94.3067239,7.64236589 C95.0447623,8.18157078 95.645098,8.85281579 96.107749,9.65612105 C96.5704,10.4594263 96.834768,11.4112737 96.900861,12.5116919 L92.3074207,12.5116919 Z"></path>
                </g>
            </g>
        </g>
    </g>
</svg>